<mxfile host="app.diagrams.net" modified="2022-04-14T11:29:10.200Z" agent="5.0 (Windows NT 10.0; Win64; x64) AppleWebKit/537.36 (KHTML, like Gecko) Chrome/100.0.4896.88 Safari/537.36" etag="baO-1-kq9V4W129k-oTA" version="17.4.3" type="github">
  <diagram id="PDouPj2kM5bLhdBqerRg" name="Page-1">
    <mxGraphModel dx="1980" dy="643" grid="1" gridSize="10" guides="1" tooltips="1" connect="1" arrows="1" fold="1" page="1" pageScale="1" pageWidth="827" pageHeight="1169" math="0" shadow="0">
      <root>
        <mxCell id="0" />
        <mxCell id="1" parent="0" />
        <mxCell id="5luADB34g27wOjglePZU-7" value="" style="group" parent="1" vertex="1" connectable="0">
          <mxGeometry x="-390" y="120" width="590" height="190" as="geometry" />
        </mxCell>
        <mxCell id="5luADB34g27wOjglePZU-3" value="Remuestreo" style="swimlane;rounded=1;shadow=0;glass=0;" parent="5luADB34g27wOjglePZU-7" vertex="1">
          <mxGeometry width="590" height="190" as="geometry">
            <mxRectangle x="70" y="50" width="100" height="23" as="alternateBounds" />
          </mxGeometry>
        </mxCell>
        <mxCell id="5luADB34g27wOjglePZU-1" value="Diezmador&lt;br&gt;M = 70" style="rounded=1;whiteSpace=wrap;html=1;" parent="5luADB34g27wOjglePZU-3" vertex="1">
          <mxGeometry x="410" y="70" width="120" height="60" as="geometry" />
        </mxCell>
        <mxCell id="5luADB34g27wOjglePZU-6" style="edgeStyle=orthogonalEdgeStyle;rounded=0;orthogonalLoop=1;jettySize=auto;html=1;exitX=1;exitY=0.5;exitDx=0;exitDy=0;" parent="5luADB34g27wOjglePZU-3" source="5luADB34g27wOjglePZU-4" target="5luADB34g27wOjglePZU-1" edge="1">
          <mxGeometry relative="1" as="geometry" />
        </mxCell>
        <mxCell id="5luADB34g27wOjglePZU-4" value="Filtro reconstrucción" style="rounded=1;whiteSpace=wrap;html=1;" parent="5luADB34g27wOjglePZU-3" vertex="1">
          <mxGeometry x="235" y="70" width="120" height="60" as="geometry" />
        </mxCell>
        <mxCell id="irT74if5BE3DJ5M5jjfX-1" value="Interpolador&lt;br&gt;L = 64" style="rounded=1;whiteSpace=wrap;html=1;" parent="5luADB34g27wOjglePZU-3" vertex="1">
          <mxGeometry x="60" y="70" width="120" height="60" as="geometry" />
        </mxCell>
        <mxCell id="5luADB34g27wOjglePZU-5" style="edgeStyle=orthogonalEdgeStyle;rounded=0;orthogonalLoop=1;jettySize=auto;html=1;exitX=1;exitY=0.5;exitDx=0;exitDy=0;entryX=0;entryY=0.5;entryDx=0;entryDy=0;" parent="5luADB34g27wOjglePZU-3" source="irT74if5BE3DJ5M5jjfX-1" target="5luADB34g27wOjglePZU-4" edge="1">
          <mxGeometry relative="1" as="geometry" />
        </mxCell>
        <mxCell id="5luADB34g27wOjglePZU-56" style="edgeStyle=orthogonalEdgeStyle;rounded=0;orthogonalLoop=1;jettySize=auto;html=1;entryX=0;entryY=0.25;entryDx=0;entryDy=0;" parent="1" source="5luADB34g27wOjglePZU-8" target="5luADB34g27wOjglePZU-23" edge="1">
          <mxGeometry relative="1" as="geometry" />
        </mxCell>
        <mxCell id="5luADB34g27wOjglePZU-8" value="Sincronismo símbolo" style="swimlane;rounded=1;shadow=0;glass=0;" parent="1" vertex="1">
          <mxGeometry x="280" y="120" width="590" height="340" as="geometry">
            <mxRectangle x="70" y="50" width="100" height="23" as="alternateBounds" />
          </mxGeometry>
        </mxCell>
        <mxCell id="5luADB34g27wOjglePZU-9" value="Diezmador&lt;br&gt;M = 70" style="rounded=1;whiteSpace=wrap;html=1;" parent="5luADB34g27wOjglePZU-8" vertex="1">
          <mxGeometry x="440" y="70" width="120" height="60" as="geometry" />
        </mxCell>
        <mxCell id="5luADB34g27wOjglePZU-11" value="Filtro reconstrucción" style="rounded=1;whiteSpace=wrap;html=1;" parent="5luADB34g27wOjglePZU-8" vertex="1">
          <mxGeometry x="90" y="145" width="120" height="60" as="geometry" />
        </mxCell>
        <mxCell id="5luADB34g27wOjglePZU-13" value="Filtro reconstrucción" style="rounded=1;whiteSpace=wrap;html=1;" parent="5luADB34g27wOjglePZU-8" vertex="1">
          <mxGeometry x="90" y="30" width="120" height="60" as="geometry" />
        </mxCell>
        <mxCell id="5luADB34g27wOjglePZU-12" style="edgeStyle=orthogonalEdgeStyle;rounded=0;orthogonalLoop=1;jettySize=auto;html=1;exitX=1;exitY=0.5;exitDx=0;exitDy=0;entryX=0;entryY=0.5;entryDx=0;entryDy=0;" parent="1" source="5luADB34g27wOjglePZU-3" target="5luADB34g27wOjglePZU-8" edge="1">
          <mxGeometry relative="1" as="geometry" />
        </mxCell>
        <mxCell id="5luADB34g27wOjglePZU-62" style="edgeStyle=orthogonalEdgeStyle;rounded=0;orthogonalLoop=1;jettySize=auto;html=1;exitX=1;exitY=0.75;exitDx=0;exitDy=0;entryX=0;entryY=0.5;entryDx=0;entryDy=0;" parent="1" source="5luADB34g27wOjglePZU-23" target="5luADB34g27wOjglePZU-57" edge="1">
          <mxGeometry relative="1" as="geometry" />
        </mxCell>
        <mxCell id="5luADB34g27wOjglePZU-63" style="edgeStyle=orthogonalEdgeStyle;rounded=0;orthogonalLoop=1;jettySize=auto;html=1;exitX=1;exitY=0.25;exitDx=0;exitDy=0;entryX=0;entryY=0.25;entryDx=0;entryDy=0;" parent="1" source="5luADB34g27wOjglePZU-23" target="5luADB34g27wOjglePZU-57" edge="1">
          <mxGeometry relative="1" as="geometry" />
        </mxCell>
        <mxCell id="5luADB34g27wOjglePZU-23" value="Separación canales" style="swimlane;rounded=1;shadow=0;glass=0;startSize=23;" parent="1" vertex="1">
          <mxGeometry x="-80" y="570" width="1010" height="300" as="geometry">
            <mxRectangle x="70" y="50" width="100" height="23" as="alternateBounds" />
          </mxGeometry>
        </mxCell>
        <mxCell id="5luADB34g27wOjglePZU-31" style="edgeStyle=orthogonalEdgeStyle;rounded=0;orthogonalLoop=1;jettySize=auto;html=1;entryX=0;entryY=0.5;entryDx=0;entryDy=0;" parent="5luADB34g27wOjglePZU-23" source="5luADB34g27wOjglePZU-26" target="5luADB34g27wOjglePZU-28" edge="1">
          <mxGeometry relative="1" as="geometry" />
        </mxCell>
        <mxCell id="5luADB34g27wOjglePZU-32" style="edgeStyle=orthogonalEdgeStyle;rounded=0;orthogonalLoop=1;jettySize=auto;html=1;entryX=0;entryY=0.5;entryDx=0;entryDy=0;" parent="5luADB34g27wOjglePZU-23" source="5luADB34g27wOjglePZU-26" target="5luADB34g27wOjglePZU-27" edge="1">
          <mxGeometry relative="1" as="geometry">
            <Array as="points">
              <mxPoint x="185" y="80" />
              <mxPoint x="185" y="150" />
            </Array>
          </mxGeometry>
        </mxCell>
        <mxCell id="5luADB34g27wOjglePZU-51" style="edgeStyle=orthogonalEdgeStyle;rounded=0;orthogonalLoop=1;jettySize=auto;html=1;entryX=0;entryY=0.5;entryDx=0;entryDy=0;labelPosition=right;verticalLabelPosition=top;align=left;verticalAlign=bottom;" parent="5luADB34g27wOjglePZU-23" source="5luADB34g27wOjglePZU-26" target="5luADB34g27wOjglePZU-44" edge="1">
          <mxGeometry relative="1" as="geometry">
            <Array as="points">
              <mxPoint x="100" y="230" />
            </Array>
          </mxGeometry>
        </mxCell>
        <mxCell id="5luADB34g27wOjglePZU-52" value="+" style="edgeLabel;html=1;align=center;verticalAlign=middle;resizable=0;points=[];" parent="5luADB34g27wOjglePZU-51" vertex="1" connectable="0">
          <mxGeometry x="0.7075" y="-4" relative="1" as="geometry">
            <mxPoint x="95" y="11" as="offset" />
          </mxGeometry>
        </mxCell>
        <mxCell id="5luADB34g27wOjglePZU-26" value="Eliminación prefijo cíclico" style="rounded=1;whiteSpace=wrap;html=1;" parent="5luADB34g27wOjglePZU-23" vertex="1">
          <mxGeometry x="40" y="50" width="120" height="60" as="geometry" />
        </mxCell>
        <mxCell id="5luADB34g27wOjglePZU-33" style="edgeStyle=orthogonalEdgeStyle;rounded=0;orthogonalLoop=1;jettySize=auto;html=1;entryX=0;entryY=0.75;entryDx=0;entryDy=0;" parent="5luADB34g27wOjglePZU-23" source="5luADB34g27wOjglePZU-27" target="5luADB34g27wOjglePZU-28" edge="1">
          <mxGeometry relative="1" as="geometry" />
        </mxCell>
        <mxCell id="5luADB34g27wOjglePZU-43" style="edgeStyle=orthogonalEdgeStyle;rounded=0;orthogonalLoop=1;jettySize=auto;html=1;entryX=0;entryY=0.5;entryDx=0;entryDy=0;" parent="5luADB34g27wOjglePZU-23" source="5luADB34g27wOjglePZU-27" target="5luADB34g27wOjglePZU-40" edge="1">
          <mxGeometry relative="1" as="geometry" />
        </mxCell>
        <mxCell id="5luADB34g27wOjglePZU-27" value="Estimación canal" style="rounded=1;whiteSpace=wrap;html=1;" parent="5luADB34g27wOjglePZU-23" vertex="1">
          <mxGeometry x="210" y="120" width="120" height="60" as="geometry" />
        </mxCell>
        <mxCell id="5luADB34g27wOjglePZU-30" style="edgeStyle=orthogonalEdgeStyle;rounded=0;orthogonalLoop=1;jettySize=auto;html=1;" parent="5luADB34g27wOjglePZU-23" source="5luADB34g27wOjglePZU-28" target="5luADB34g27wOjglePZU-29" edge="1">
          <mxGeometry relative="1" as="geometry" />
        </mxCell>
        <mxCell id="5luADB34g27wOjglePZU-28" value="Ecualización" style="rounded=1;whiteSpace=wrap;html=1;" parent="5luADB34g27wOjglePZU-23" vertex="1">
          <mxGeometry x="390" y="50" width="120" height="60" as="geometry" />
        </mxCell>
        <mxCell id="5luADB34g27wOjglePZU-39" style="edgeStyle=orthogonalEdgeStyle;rounded=0;orthogonalLoop=1;jettySize=auto;html=1;exitX=1;exitY=0.5;exitDx=0;exitDy=0;" parent="5luADB34g27wOjglePZU-23" source="5luADB34g27wOjglePZU-29" target="5luADB34g27wOjglePZU-37" edge="1">
          <mxGeometry relative="1" as="geometry" />
        </mxCell>
        <mxCell id="5luADB34g27wOjglePZU-42" style="edgeStyle=orthogonalEdgeStyle;rounded=0;orthogonalLoop=1;jettySize=auto;html=1;entryX=0.5;entryY=0;entryDx=0;entryDy=0;" parent="5luADB34g27wOjglePZU-23" source="5luADB34g27wOjglePZU-29" target="5luADB34g27wOjglePZU-40" edge="1">
          <mxGeometry relative="1" as="geometry" />
        </mxCell>
        <mxCell id="5luADB34g27wOjglePZU-29" value="Detector QAM" style="rounded=1;whiteSpace=wrap;html=1;" parent="5luADB34g27wOjglePZU-23" vertex="1">
          <mxGeometry x="560" y="50" width="120" height="60" as="geometry" />
        </mxCell>
        <mxCell id="5luADB34g27wOjglePZU-37" value="IFFT e inserción prefijo cíclico" style="rounded=1;whiteSpace=wrap;html=1;" parent="5luADB34g27wOjglePZU-23" vertex="1">
          <mxGeometry x="770" y="50" width="120" height="60" as="geometry" />
        </mxCell>
        <mxCell id="5luADB34g27wOjglePZU-54" value="Señal vigiilancia" style="edgeStyle=orthogonalEdgeStyle;rounded=0;orthogonalLoop=1;jettySize=auto;html=1;entryX=1;entryY=0.75;entryDx=0;entryDy=0;" parent="5luADB34g27wOjglePZU-23" source="5luADB34g27wOjglePZU-38" target="5luADB34g27wOjglePZU-23" edge="1">
          <mxGeometry x="-0.12" y="15" relative="1" as="geometry">
            <Array as="points">
              <mxPoint x="900" y="230" />
              <mxPoint x="900" y="225" />
            </Array>
            <mxPoint as="offset" />
          </mxGeometry>
        </mxCell>
        <mxCell id="5luADB34g27wOjglePZU-38" value="IFFT e inserción prefijo cíclico" style="rounded=1;whiteSpace=wrap;html=1;" parent="5luADB34g27wOjglePZU-23" vertex="1">
          <mxGeometry x="770" y="200" width="120" height="60" as="geometry" />
        </mxCell>
        <mxCell id="5luADB34g27wOjglePZU-45" value="-" style="edgeStyle=orthogonalEdgeStyle;rounded=0;orthogonalLoop=1;jettySize=auto;html=1;entryX=0.5;entryY=0;entryDx=0;entryDy=0;labelPosition=right;verticalLabelPosition=middle;align=left;verticalAlign=middle;" parent="5luADB34g27wOjglePZU-23" source="5luADB34g27wOjglePZU-40" target="5luADB34g27wOjglePZU-44" edge="1">
          <mxGeometry relative="1" as="geometry" />
        </mxCell>
        <mxCell id="5luADB34g27wOjglePZU-40" value="" style="shape=sumEllipse;perimeter=ellipsePerimeter;whiteSpace=wrap;html=1;backgroundOutline=1;rounded=1;shadow=0;glass=0;" parent="5luADB34g27wOjglePZU-23" vertex="1">
          <mxGeometry x="700" y="135" width="30" height="30" as="geometry" />
        </mxCell>
        <mxCell id="5luADB34g27wOjglePZU-46" style="edgeStyle=orthogonalEdgeStyle;rounded=0;orthogonalLoop=1;jettySize=auto;html=1;entryX=0;entryY=0.5;entryDx=0;entryDy=0;" parent="5luADB34g27wOjglePZU-23" source="5luADB34g27wOjglePZU-44" target="5luADB34g27wOjglePZU-38" edge="1">
          <mxGeometry relative="1" as="geometry" />
        </mxCell>
        <mxCell id="5luADB34g27wOjglePZU-44" value="" style="shape=orEllipse;perimeter=ellipsePerimeter;whiteSpace=wrap;html=1;backgroundOutline=1;rounded=1;shadow=0;glass=0;" parent="5luADB34g27wOjglePZU-23" vertex="1">
          <mxGeometry x="700" y="215" width="30" height="30" as="geometry" />
        </mxCell>
        <mxCell id="5luADB34g27wOjglePZU-55" style="edgeStyle=orthogonalEdgeStyle;rounded=0;orthogonalLoop=1;jettySize=auto;html=1;exitX=0;exitY=0.25;exitDx=0;exitDy=0;entryX=0;entryY=0.5;entryDx=0;entryDy=0;" parent="5luADB34g27wOjglePZU-23" source="5luADB34g27wOjglePZU-23" target="5luADB34g27wOjglePZU-26" edge="1">
          <mxGeometry relative="1" as="geometry">
            <Array as="points">
              <mxPoint x="20" y="75" />
              <mxPoint x="20" y="80" />
            </Array>
          </mxGeometry>
        </mxCell>
        <mxCell id="5luADB34g27wOjglePZU-53" value="Señal referencia" style="edgeStyle=orthogonalEdgeStyle;rounded=0;orthogonalLoop=1;jettySize=auto;html=1;entryX=1;entryY=0.25;entryDx=0;entryDy=0;" parent="5luADB34g27wOjglePZU-23" source="5luADB34g27wOjglePZU-37" target="5luADB34g27wOjglePZU-23" edge="1">
          <mxGeometry x="-0.0368" y="15" relative="1" as="geometry">
            <mxPoint x="1010" y="110" as="targetPoint" />
            <Array as="points">
              <mxPoint x="910" y="90" />
              <mxPoint x="910" y="75" />
            </Array>
            <mxPoint as="offset" />
          </mxGeometry>
        </mxCell>
        <mxCell id="5luADB34g27wOjglePZU-57" value="Algoritmo Batch" style="swimlane;rounded=1;shadow=0;glass=0;" parent="1" vertex="1">
          <mxGeometry x="1140" y="570" width="1150" height="680" as="geometry" />
        </mxCell>
        <mxCell id="5luADB34g27wOjglePZU-74" style="edgeStyle=orthogonalEdgeStyle;rounded=0;orthogonalLoop=1;jettySize=auto;html=1;entryX=0;entryY=0.5;entryDx=0;entryDy=0;" parent="5luADB34g27wOjglePZU-57" source="5luADB34g27wOjglePZU-64" target="5luADB34g27wOjglePZU-68" edge="1">
          <mxGeometry relative="1" as="geometry" />
        </mxCell>
        <mxCell id="5luADB34g27wOjglePZU-75" style="edgeStyle=orthogonalEdgeStyle;rounded=0;orthogonalLoop=1;jettySize=auto;html=1;exitX=1;exitY=0.5;exitDx=0;exitDy=0;entryX=0;entryY=0.5;entryDx=0;entryDy=0;" parent="5luADB34g27wOjglePZU-57" source="5luADB34g27wOjglePZU-64" target="5luADB34g27wOjglePZU-69" edge="1">
          <mxGeometry relative="1" as="geometry" />
        </mxCell>
        <mxCell id="5luADB34g27wOjglePZU-76" style="edgeStyle=orthogonalEdgeStyle;rounded=0;orthogonalLoop=1;jettySize=auto;html=1;exitX=1;exitY=0.5;exitDx=0;exitDy=0;entryX=0;entryY=0.5;entryDx=0;entryDy=0;" parent="5luADB34g27wOjglePZU-57" source="5luADB34g27wOjglePZU-64" target="5luADB34g27wOjglePZU-70" edge="1">
          <mxGeometry relative="1" as="geometry" />
        </mxCell>
        <mxCell id="5luADB34g27wOjglePZU-77" style="edgeStyle=orthogonalEdgeStyle;rounded=0;orthogonalLoop=1;jettySize=auto;html=1;exitX=1;exitY=0.5;exitDx=0;exitDy=0;entryX=0;entryY=0.5;entryDx=0;entryDy=0;" parent="5luADB34g27wOjglePZU-57" source="5luADB34g27wOjglePZU-64" target="5luADB34g27wOjglePZU-71" edge="1">
          <mxGeometry relative="1" as="geometry" />
        </mxCell>
        <mxCell id="5luADB34g27wOjglePZU-78" style="edgeStyle=orthogonalEdgeStyle;rounded=0;orthogonalLoop=1;jettySize=auto;html=1;exitX=1;exitY=0.5;exitDx=0;exitDy=0;entryX=0;entryY=0.5;entryDx=0;entryDy=0;" parent="5luADB34g27wOjglePZU-57" source="5luADB34g27wOjglePZU-64" target="5luADB34g27wOjglePZU-72" edge="1">
          <mxGeometry relative="1" as="geometry" />
        </mxCell>
        <mxCell id="5luADB34g27wOjglePZU-80" style="edgeStyle=orthogonalEdgeStyle;orthogonalLoop=1;jettySize=auto;html=1;exitX=0.5;exitY=1;exitDx=0;exitDy=0;entryX=0;entryY=0.75;entryDx=0;entryDy=0;rounded=0;dashed=1;" parent="5luADB34g27wOjglePZU-57" source="5luADB34g27wOjglePZU-64" target="5luADB34g27wOjglePZU-69" edge="1">
          <mxGeometry relative="1" as="geometry" />
        </mxCell>
        <mxCell id="5luADB34g27wOjglePZU-82" style="edgeStyle=orthogonalEdgeStyle;rounded=0;orthogonalLoop=1;jettySize=auto;html=1;exitX=0.5;exitY=1;exitDx=0;exitDy=0;entryX=0;entryY=0.75;entryDx=0;entryDy=0;dashed=1;" parent="5luADB34g27wOjglePZU-57" source="5luADB34g27wOjglePZU-64" target="5luADB34g27wOjglePZU-68" edge="1">
          <mxGeometry relative="1" as="geometry" />
        </mxCell>
        <mxCell id="5luADB34g27wOjglePZU-83" style="edgeStyle=orthogonalEdgeStyle;rounded=0;orthogonalLoop=1;jettySize=auto;html=1;exitX=0.5;exitY=1;exitDx=0;exitDy=0;entryX=0;entryY=0.75;entryDx=0;entryDy=0;dashed=1;" parent="5luADB34g27wOjglePZU-57" source="5luADB34g27wOjglePZU-64" target="5luADB34g27wOjglePZU-70" edge="1">
          <mxGeometry relative="1" as="geometry" />
        </mxCell>
        <mxCell id="5luADB34g27wOjglePZU-84" style="edgeStyle=orthogonalEdgeStyle;rounded=0;orthogonalLoop=1;jettySize=auto;html=1;entryX=0;entryY=0.5;entryDx=0;entryDy=0;dashed=1;" parent="5luADB34g27wOjglePZU-57" source="5luADB34g27wOjglePZU-64" target="5luADB34g27wOjglePZU-71" edge="1">
          <mxGeometry relative="1" as="geometry">
            <Array as="points">
              <mxPoint x="130" y="505" />
            </Array>
          </mxGeometry>
        </mxCell>
        <mxCell id="5luADB34g27wOjglePZU-85" style="edgeStyle=orthogonalEdgeStyle;rounded=0;orthogonalLoop=1;jettySize=auto;html=1;exitX=0.5;exitY=1;exitDx=0;exitDy=0;entryX=0;entryY=0.75;entryDx=0;entryDy=0;dashed=1;" parent="5luADB34g27wOjglePZU-57" source="5luADB34g27wOjglePZU-64" target="5luADB34g27wOjglePZU-72" edge="1">
          <mxGeometry relative="1" as="geometry" />
        </mxCell>
        <mxCell id="5luADB34g27wOjglePZU-64" value="Segmentación de la señal" style="rounded=1;whiteSpace=wrap;html=1;" parent="5luADB34g27wOjglePZU-57" vertex="1">
          <mxGeometry x="70" y="105" width="120" height="60" as="geometry" />
        </mxCell>
        <mxCell id="5luADB34g27wOjglePZU-66" style="edgeStyle=orthogonalEdgeStyle;rounded=0;orthogonalLoop=1;jettySize=auto;html=1;entryX=0;entryY=0.75;entryDx=0;entryDy=0;exitX=0;exitY=0.5;exitDx=0;exitDy=0;" parent="5luADB34g27wOjglePZU-57" source="5luADB34g27wOjglePZU-57" target="5luADB34g27wOjglePZU-64" edge="1">
          <mxGeometry relative="1" as="geometry">
            <Array as="points">
              <mxPoint x="10" y="175" />
              <mxPoint x="10" y="150" />
            </Array>
          </mxGeometry>
        </mxCell>
        <mxCell id="5luADB34g27wOjglePZU-67" style="edgeStyle=orthogonalEdgeStyle;rounded=0;orthogonalLoop=1;jettySize=auto;html=1;entryX=0;entryY=0.25;entryDx=0;entryDy=0;exitX=0;exitY=0.25;exitDx=0;exitDy=0;" parent="5luADB34g27wOjglePZU-57" source="5luADB34g27wOjglePZU-57" target="5luADB34g27wOjglePZU-64" edge="1">
          <mxGeometry relative="1" as="geometry">
            <Array as="points">
              <mxPoint x="30" y="88" />
              <mxPoint x="30" y="120" />
            </Array>
          </mxGeometry>
        </mxCell>
        <mxCell id="5luADB34g27wOjglePZU-89" style="edgeStyle=orthogonalEdgeStyle;rounded=0;orthogonalLoop=1;jettySize=auto;html=1;exitX=1;exitY=0.5;exitDx=0;exitDy=0;entryX=0;entryY=0.063;entryDx=0;entryDy=0;entryPerimeter=0;" parent="5luADB34g27wOjglePZU-57" source="5luADB34g27wOjglePZU-68" target="5luADB34g27wOjglePZU-86" edge="1">
          <mxGeometry relative="1" as="geometry" />
        </mxCell>
        <mxCell id="5luADB34g27wOjglePZU-68" value="Correlación cruzada" style="rounded=1;whiteSpace=wrap;html=1;" parent="5luADB34g27wOjglePZU-57" vertex="1">
          <mxGeometry x="250" y="190" width="120" height="60" as="geometry" />
        </mxCell>
        <mxCell id="5luADB34g27wOjglePZU-90" style="edgeStyle=orthogonalEdgeStyle;rounded=0;orthogonalLoop=1;jettySize=auto;html=1;" parent="5luADB34g27wOjglePZU-57" source="5luADB34g27wOjglePZU-69" edge="1">
          <mxGeometry relative="1" as="geometry">
            <mxPoint x="490" y="310" as="targetPoint" />
          </mxGeometry>
        </mxCell>
        <mxCell id="5luADB34g27wOjglePZU-69" value="Correlación cruzada" style="rounded=1;whiteSpace=wrap;html=1;" parent="5luADB34g27wOjglePZU-57" vertex="1">
          <mxGeometry x="250" y="280" width="120" height="60" as="geometry" />
        </mxCell>
        <mxCell id="5luADB34g27wOjglePZU-91" style="edgeStyle=orthogonalEdgeStyle;rounded=0;orthogonalLoop=1;jettySize=auto;html=1;exitX=1;exitY=0.5;exitDx=0;exitDy=0;entryX=0;entryY=0.458;entryDx=0;entryDy=0;entryPerimeter=0;" parent="5luADB34g27wOjglePZU-57" source="5luADB34g27wOjglePZU-70" target="5luADB34g27wOjglePZU-86" edge="1">
          <mxGeometry relative="1" as="geometry" />
        </mxCell>
        <mxCell id="5luADB34g27wOjglePZU-70" value="Correlación cruzada" style="rounded=1;whiteSpace=wrap;html=1;" parent="5luADB34g27wOjglePZU-57" vertex="1">
          <mxGeometry x="250" y="375" width="120" height="60" as="geometry" />
        </mxCell>
        <mxCell id="5luADB34g27wOjglePZU-92" style="edgeStyle=orthogonalEdgeStyle;rounded=0;orthogonalLoop=1;jettySize=auto;html=1;entryX=-0.023;entryY=0.67;entryDx=0;entryDy=0;entryPerimeter=0;" parent="5luADB34g27wOjglePZU-57" source="5luADB34g27wOjglePZU-71" target="5luADB34g27wOjglePZU-86" edge="1">
          <mxGeometry relative="1" as="geometry" />
        </mxCell>
        <mxCell id="5luADB34g27wOjglePZU-71" value="Correlación cruzada" style="rounded=1;whiteSpace=wrap;html=1;" parent="5luADB34g27wOjglePZU-57" vertex="1">
          <mxGeometry x="250" y="475" width="120" height="60" as="geometry" />
        </mxCell>
        <mxCell id="5luADB34g27wOjglePZU-93" style="edgeStyle=orthogonalEdgeStyle;rounded=0;orthogonalLoop=1;jettySize=auto;html=1;entryX=-0.023;entryY=0.946;entryDx=0;entryDy=0;entryPerimeter=0;" parent="5luADB34g27wOjglePZU-57" source="5luADB34g27wOjglePZU-72" target="5luADB34g27wOjglePZU-86" edge="1">
          <mxGeometry relative="1" as="geometry" />
        </mxCell>
        <mxCell id="5luADB34g27wOjglePZU-72" value="Correlación cruzada" style="rounded=1;whiteSpace=wrap;html=1;" parent="5luADB34g27wOjglePZU-57" vertex="1">
          <mxGeometry x="250" y="605" width="120" height="60" as="geometry" />
        </mxCell>
        <mxCell id="5luADB34g27wOjglePZU-79" value="&lt;b&gt;.&lt;br&gt;.&lt;br&gt;.&lt;br&gt;&lt;/b&gt;" style="text;html=1;align=center;verticalAlign=middle;resizable=0;points=[];autosize=1;strokeColor=none;fillColor=none;" parent="5luADB34g27wOjglePZU-57" vertex="1">
          <mxGeometry x="230" y="555" width="20" height="50" as="geometry" />
        </mxCell>
        <mxCell id="5luADB34g27wOjglePZU-102" style="edgeStyle=orthogonalEdgeStyle;rounded=0;orthogonalLoop=1;jettySize=auto;html=1;entryX=0.004;entryY=0.065;entryDx=0;entryDy=0;entryPerimeter=0;exitX=0.997;exitY=0.065;exitDx=0;exitDy=0;exitPerimeter=0;" parent="5luADB34g27wOjglePZU-57" source="5luADB34g27wOjglePZU-86" target="5luADB34g27wOjglePZU-99" edge="1">
          <mxGeometry relative="1" as="geometry" />
        </mxCell>
        <mxCell id="5luADB34g27wOjglePZU-103" style="edgeStyle=orthogonalEdgeStyle;rounded=0;orthogonalLoop=1;jettySize=auto;html=1;exitX=1;exitY=0.25;exitDx=0;exitDy=0;entryX=0;entryY=0.25;entryDx=0;entryDy=0;" parent="5luADB34g27wOjglePZU-57" source="5luADB34g27wOjglePZU-86" target="5luADB34g27wOjglePZU-99" edge="1">
          <mxGeometry relative="1" as="geometry" />
        </mxCell>
        <mxCell id="5luADB34g27wOjglePZU-104" style="edgeStyle=orthogonalEdgeStyle;rounded=0;orthogonalLoop=1;jettySize=auto;html=1;exitX=0.997;exitY=0.459;exitDx=0;exitDy=0;exitPerimeter=0;entryX=-0.004;entryY=0.459;entryDx=0;entryDy=0;entryPerimeter=0;" parent="5luADB34g27wOjglePZU-57" source="5luADB34g27wOjglePZU-86" target="5luADB34g27wOjglePZU-99" edge="1">
          <mxGeometry relative="1" as="geometry" />
        </mxCell>
        <mxCell id="5luADB34g27wOjglePZU-105" style="edgeStyle=orthogonalEdgeStyle;rounded=0;orthogonalLoop=1;jettySize=auto;html=1;exitX=1.013;exitY=0.678;exitDx=0;exitDy=0;exitPerimeter=0;entryX=0;entryY=0.678;entryDx=0;entryDy=0;entryPerimeter=0;" parent="5luADB34g27wOjglePZU-57" source="5luADB34g27wOjglePZU-86" target="5luADB34g27wOjglePZU-99" edge="1">
          <mxGeometry relative="1" as="geometry">
            <mxPoint x="690" y="510" as="targetPoint" />
          </mxGeometry>
        </mxCell>
        <mxCell id="5luADB34g27wOjglePZU-86" value="&lt;b&gt;FFT&lt;/b&gt;" style="rounded=1;whiteSpace=wrap;html=1;shadow=0;glass=0;" parent="5luADB34g27wOjglePZU-57" vertex="1">
          <mxGeometry x="490" y="190" width="120" height="470" as="geometry" />
        </mxCell>
        <mxCell id="5luADB34g27wOjglePZU-99" value="" style="rounded=0;whiteSpace=wrap;html=1;shadow=0;glass=0;" parent="5luADB34g27wOjglePZU-57" vertex="1">
          <mxGeometry x="690" y="190" width="350" height="470" as="geometry" />
        </mxCell>
        <mxCell id="5luADB34g27wOjglePZU-100" value="Frecuencia" style="text;html=1;align=center;verticalAlign=middle;resizable=0;points=[];autosize=1;strokeColor=none;fillColor=none;" parent="5luADB34g27wOjglePZU-57" vertex="1">
          <mxGeometry x="830" y="160" width="70" height="20" as="geometry" />
        </mxCell>
        <mxCell id="5luADB34g27wOjglePZU-101" value="Tiempo" style="text;html=1;align=center;verticalAlign=middle;resizable=0;points=[];autosize=1;strokeColor=none;fillColor=none;horizontal=0;" parent="5luADB34g27wOjglePZU-57" vertex="1">
          <mxGeometry x="655" y="425" width="30" height="40" as="geometry" />
        </mxCell>
        <mxCell id="5luADB34g27wOjglePZU-106" style="edgeStyle=orthogonalEdgeStyle;rounded=0;orthogonalLoop=1;jettySize=auto;html=1;exitX=1.013;exitY=0.942;exitDx=0;exitDy=0;exitPerimeter=0;" parent="5luADB34g27wOjglePZU-57" source="5luADB34g27wOjglePZU-86" edge="1">
          <mxGeometry relative="1" as="geometry">
            <mxPoint x="690" y="633" as="targetPoint" />
          </mxGeometry>
        </mxCell>
        <mxCell id="5luADB34g27wOjglePZU-107" value="" style="endArrow=none;html=1;rounded=0;" parent="5luADB34g27wOjglePZU-57" edge="1">
          <mxGeometry width="50" height="50" relative="1" as="geometry">
            <mxPoint x="690" y="274" as="sourcePoint" />
            <mxPoint x="1040" y="274" as="targetPoint" />
          </mxGeometry>
        </mxCell>
        <mxCell id="5luADB34g27wOjglePZU-108" value="" style="endArrow=none;html=1;rounded=0;" parent="5luADB34g27wOjglePZU-57" edge="1">
          <mxGeometry width="50" height="50" relative="1" as="geometry">
            <mxPoint x="690" y="370" as="sourcePoint" />
            <mxPoint x="1040" y="370" as="targetPoint" />
          </mxGeometry>
        </mxCell>
        <mxCell id="5luADB34g27wOjglePZU-109" value="" style="endArrow=none;html=1;rounded=0;" parent="5luADB34g27wOjglePZU-57" edge="1">
          <mxGeometry width="50" height="50" relative="1" as="geometry">
            <mxPoint x="690" y="460" as="sourcePoint" />
            <mxPoint x="1040" y="460" as="targetPoint" />
          </mxGeometry>
        </mxCell>
        <mxCell id="5luADB34g27wOjglePZU-110" value="" style="endArrow=none;html=1;rounded=0;" parent="5luADB34g27wOjglePZU-57" edge="1">
          <mxGeometry width="50" height="50" relative="1" as="geometry">
            <mxPoint x="690" y="570" as="sourcePoint" />
            <mxPoint x="1040" y="570" as="targetPoint" />
          </mxGeometry>
        </mxCell>
        <mxCell id="iroz2q5MWz0Eh91kU0fL-8" value="&lt;b&gt;.&lt;br&gt;.&lt;br&gt;.&lt;br&gt;&lt;/b&gt;" style="text;html=1;align=center;verticalAlign=middle;resizable=0;points=[];autosize=1;strokeColor=none;fillColor=none;" vertex="1" parent="5luADB34g27wOjglePZU-57">
          <mxGeometry x="460" y="555" width="20" height="50" as="geometry" />
        </mxCell>
        <mxCell id="iroz2q5MWz0Eh91kU0fL-9" value="&lt;b&gt;.&lt;br&gt;.&lt;br&gt;.&lt;br&gt;&lt;/b&gt;" style="text;html=1;align=center;verticalAlign=middle;resizable=0;points=[];autosize=1;strokeColor=none;fillColor=none;" vertex="1" parent="5luADB34g27wOjglePZU-57">
          <mxGeometry x="660" y="555" width="20" height="50" as="geometry" />
        </mxCell>
        <mxCell id="5luADB34g27wOjglePZU-111" style="edgeStyle=orthogonalEdgeStyle;rounded=0;orthogonalLoop=1;jettySize=auto;html=1;" parent="1" source="5luADB34g27wOjglePZU-100" edge="1">
          <mxGeometry relative="1" as="geometry">
            <mxPoint x="2060" y="740" as="targetPoint" />
          </mxGeometry>
        </mxCell>
        <mxCell id="5luADB34g27wOjglePZU-112" style="edgeStyle=orthogonalEdgeStyle;rounded=0;orthogonalLoop=1;jettySize=auto;html=1;" parent="1" source="5luADB34g27wOjglePZU-101" edge="1">
          <mxGeometry relative="1" as="geometry">
            <mxPoint x="1810" y="1070" as="targetPoint" />
          </mxGeometry>
        </mxCell>
        <mxCell id="iroz2q5MWz0Eh91kU0fL-5" style="edgeStyle=orthogonalEdgeStyle;rounded=0;orthogonalLoop=1;jettySize=auto;html=1;entryX=0;entryY=0.5;entryDx=0;entryDy=0;" edge="1" parent="1" source="iroz2q5MWz0Eh91kU0fL-1" target="iroz2q5MWz0Eh91kU0fL-3">
          <mxGeometry relative="1" as="geometry" />
        </mxCell>
        <mxCell id="iroz2q5MWz0Eh91kU0fL-1" value="" style="shape=image;html=1;verticalAlign=top;verticalLabelPosition=bottom;labelBackgroundColor=#ffffff;imageAspect=0;aspect=fixed;image=https://cdn4.iconfinder.com/data/icons/internet-networking-and-communication-glyph-24/24/Communication_tower_signal_tower_wifi_antenna_wifi_tower_wireless_antenna-128.png" vertex="1" parent="1">
          <mxGeometry x="-760" y="176" width="78" height="78" as="geometry" />
        </mxCell>
        <mxCell id="iroz2q5MWz0Eh91kU0fL-4" style="edgeStyle=orthogonalEdgeStyle;rounded=0;orthogonalLoop=1;jettySize=auto;html=1;entryX=0;entryY=0.5;entryDx=0;entryDy=0;" edge="1" parent="1" source="iroz2q5MWz0Eh91kU0fL-3" target="5luADB34g27wOjglePZU-3">
          <mxGeometry relative="1" as="geometry" />
        </mxCell>
        <mxCell id="iroz2q5MWz0Eh91kU0fL-3" value="Conversor Analógico/Digital" style="rounded=1;whiteSpace=wrap;html=1;" vertex="1" parent="1">
          <mxGeometry x="-640" y="185" width="120" height="60" as="geometry" />
        </mxCell>
      </root>
    </mxGraphModel>
  </diagram>
</mxfile>
